<?xml version="1.0" encoding="UTF-8" standalone="no"?>
<!-- Created with Inkscape (http://www.inkscape.org/) -->

<svg
   xmlns:dc="http://purl.org/dc/elements/1.1/"
   xmlns:cc="http://creativecommons.org/ns#"
   xmlns:rdf="http://www.w3.org/1999/02/22-rdf-syntax-ns#"
   xmlns:svg="http://www.w3.org/2000/svg"
   xmlns="http://www.w3.org/2000/svg"
   xmlns:sodipodi="http://sodipodi.sourceforge.net/DTD/sodipodi-0.dtd"
   xmlns:inkscape="http://www.inkscape.org/namespaces/inkscape"
   width="210mm"
   height="297mm"
   viewBox="0 0 210 297"
   version="1.1"
   id="svg8"
   inkscape:version="0.91 r13725"
   sodipodi:docname="logo.svg">
  <defs
     id="defs2" />
  <sodipodi:namedview
     id="base"
     pagecolor="#ffffff"
     bordercolor="#666666"
     borderopacity="1.0"
     inkscape:pageopacity="0.0"
     inkscape:pageshadow="2"
     inkscape:zoom="2.0000001"
     inkscape:cx="550.90996"
     inkscape:cy="269.36911"
     inkscape:document-units="mm"
     inkscape:current-layer="layer1"
     showgrid="false"
     showborder="false"
     inkscape:window-width="1366"
     inkscape:window-height="710"
     inkscape:window-x="0"
     inkscape:window-y="30"
     inkscape:window-maximized="1"
     inkscape:snap-text-baseline="true" />
  <metadata
     id="metadata5">
    <rdf:RDF>
      <cc:Work
         rdf:about="">
        <dc:format>image/svg+xml</dc:format>
        <dc:type
           rdf:resource="http://purl.org/dc/dcmitype/StillImage" />
        <dc:title />
      </cc:Work>
    </rdf:RDF>
  </metadata>
  <g
     inkscape:label="Layer 1"
     inkscape:groupmode="layer"
     id="layer1">
    <path
       style="fill:#ffffff;fill-opacity:1;stroke-width:0.26458332"
       d="m 101.99372,229.8614 c -7.606976,-0.57475 -13.180736,-3.79883 -17.056896,-9.86639 -2.3205,-3.63242 -3.31231,-7.16796 -3.31231,-11.80754 0,-5.68227 1.83292,-10.63956 5.57458,-15.07695 1.9242,-2.28199 5.62411,-4.72227 8.57692,-5.65693 3.64038,-1.15229 5.133106,-1.22654 24.658296,-1.22654 12.3402,0 18.80875,0.0925 19.14764,0.27389 0.42236,0.22605 0.51177,0.56346 0.51177,1.93146 0,0.93644 -0.13813,1.7957 -0.3175,1.97507 -0.24076,0.24075 -4.76549,0.31876 -18.71927,0.32274 -10.19298,0.003 -19.17657,0.11735 -20.13865,0.25656 -4.016696,0.5812 -7.461036,2.25176 -10.095276,4.89637 -3.08662,3.09878 -4.44777,6.29088 -4.64339,10.88944 -0.21421,5.03553 1.01324,8.76188 4.08291,12.39509 2.75203,3.25726 6.13215,5.07425 11.052166,5.9411 0.98995,0.17442 8.25406,0.27661 19.6627,0.27661 11.96583,0 18.26607,0.0927 18.60454,0.27389 0.43039,0.23034 0.51177,0.56546 0.51177,2.10736 0,1.54191 -0.0814,1.87702 -0.51177,2.10736 -0.60788,0.32533 -33.26052,0.31439 -37.58823,-0.0126 z"
       id="path4003"
       inkscape:connector-curvature="0" />
    <path
       style="fill:#ffffff;fill-opacity:1;stroke-width:0.26458332"
       d="m 151.36682,229.46478 c -0.29757,-0.77545 -0.17058,-3.21257 0.18268,-3.50575 0.23546,-0.19542 6.03157,-0.31253 18.45469,-0.37289 17.9721,-0.0873 18.12667,-0.0926 20.09578,-0.69128 3.57744,-1.08761 5.22518,-2.05851 7.67431,-4.52199 2.58764,-2.60278 3.66484,-4.49229 4.53209,-7.9497 0.45673,-1.8208 0.53574,-2.72342 0.41687,-4.7625 -0.2749,-4.71575 -1.87181,-8.29962 -5.20593,-11.68337 -2.1782,-2.21062 -4.17411,-3.36296 -7.82372,-4.51702 -1.80326,-0.57022 -2.22759,-0.58569 -19.88739,-0.72513 -12.60989,-0.0996 -18.13253,-0.23026 -18.33604,-0.43393 -0.16983,-0.16996 -0.25797,-0.99719 -0.21144,-1.98438 l 0.0798,-1.69292 18.20776,-0.068 c 17.22164,-0.0643 18.34651,-0.0398 20.76979,0.45305 6.31393,1.28401 11.63828,5.57911 14.5947,11.77343 1.48869,3.11909 1.95339,5.76058 1.79007,10.17508 -0.14496,3.91797 -0.62084,5.91827 -2.11431,8.88725 -3.61134,7.17922 -8.97417,10.8112 -17.38695,11.77532 -1.24244,0.14238 -9.77694,0.25985 -18.96556,0.26105 -14.99143,0.002 -16.72308,-0.0408 -16.86719,-0.41635 z"
       id="path4001"
       inkscape:connector-curvature="0" />
    <path
       style="fill:#ffffff;fill-opacity:1;stroke-width:0.26458332"
       d="m 124.08639,223.74391 c -0.0688,-0.1886 -0.15644,-1.70728 -0.1948,-3.37486 l -0.0697,-3.03196 -1.5875,-0.88893 c -3.68025,-2.0608 -3.87544,-2.59009 -3.77815,-10.24507 l 0.074,-5.82083 1.55992,-0.0805 c 0.85796,-0.0443 1.68284,0.0424 1.83309,0.19267 0.15024,0.15024 0.28666,1.37709 0.30315,2.72633 0.10971,8.97766 0.0732,8.58738 0.88961,9.50114 0.63434,0.70996 0.97917,0.85768 2.24762,0.96287 1.81806,0.15077 2.89302,-0.24682 3.69067,-1.36506 0.55135,-0.77295 0.59678,-1.17521 0.72074,-6.3812 l 0.13229,-5.55625 1.54367,-0.08 c 2.42588,-0.12574 2.35983,-0.30691 2.24357,6.15285 -0.0972,5.39904 -0.12134,5.60917 -0.79306,6.89175 -0.8494,1.62183 -1.53028,2.27098 -3.32314,3.16824 -1.61773,0.80961 -1.6331,0.851 -1.72227,4.63697 l -0.0654,2.77812 -1.78958,0.0783 c -1.28271,0.0561 -1.82499,-0.0188 -1.91463,-0.26458 z"
       id="path3999"
       inkscape:connector-curvature="0" />
    <path
       style="fill:#ffffff;fill-opacity:1;stroke-width:0.26458332"
       d="m 138.83695,217.1892 c -0.5915,-0.25181 -0.5953,-0.29032 -0.59273,-6.01665 0.002,-5.50994 0.0301,-5.82135 0.62906,-7.08613 1.26682,-2.67512 3.56473,-4.08942 6.6444,-4.08942 2.25392,0 3.75708,0.60928 5.35341,2.1699 1.81887,1.77818 2.05492,2.83409 2.05492,9.19205 l 0,5.42045 -0.76115,0.36475 c -0.54904,0.26312 -1.06515,0.30076 -1.85208,0.1351 l -1.09094,-0.22967 -0.13229,-5.56288 c -0.12666,-5.32609 -0.15858,-5.59634 -0.74982,-6.34928 -0.84424,-1.07511 -1.55931,-1.42746 -2.91933,-1.43849 -0.99562,-0.008 -2.57968,1.08398 -2.57968,1.08398 l -0.63033,0.96105 -0.004,5.38894 c -0.002,2.96392 -0.10657,5.55073 -0.23186,5.74848 -0.28344,0.44733 -2.33663,0.64877 -3.13753,0.30782 z"
       id="path3997"
       inkscape:connector-curvature="0"
       sodipodi:nodetypes="cccsssccccscccccccc" />
    <path
       style="fill:#ffffff;fill-opacity:1;stroke-width:0.26458332"
       d="m 102.32077,216.69834 c -0.35764,-0.22702 -0.52974,-2.83954 -0.20832,-3.16238 0.10355,-0.10402 2.27943,-0.24865 4.83527,-0.32141 4.04946,-0.11528 4.68446,-0.19183 4.93837,-0.59531 0.63457,-1.00837 -0.2144,-1.5262 -4.86529,-2.96753 -3.84019,-1.19009 -5.02708,-2.42617 -5.02708,-5.23542 0,-3.43375 2.4548,-4.69511 9.12812,-4.69034 4.16997,0.003 4.10105,-0.0307 4.10105,2.00504 0,2.04258 0.25813,1.93793 -4.99868,2.02661 -3.27967,0.0553 -3.84809,0.1278 -4.09656,0.5223 -0.46788,0.74286 0.30852,1.24132 3.18026,2.04177 5.01808,1.39871 6.70873,2.86906 6.70873,5.83455 0,2.37304 -1.09419,3.70915 -3.56449,4.35258 -1.69654,0.44189 -9.50374,0.58795 -10.13138,0.18954 z"
       id="path3991"
       inkscape:connector-curvature="0" />
    <path
       style="fill:#ffffff;fill-opacity:1;stroke-width:0.26458332"
       d="m 157.47921,216.75354 c -0.10316,-0.10317 -0.18757,-5.47146 -0.18757,-11.92953 l 0,-11.74195 1.78593,0.0782 1.78594,0.0782 0.13229,6.26238 c 0.0728,3.44431 0.21991,6.34974 0.327,6.45652 0.32844,0.32746 1.79494,0.17079 2.45604,-0.26237 0.34416,-0.22551 1.18116,-1.27501 1.86001,-2.33223 1.94132,-3.02335 2.05661,-3.11284 4.01034,-3.11284 1.2486,0 1.72109,0.10193 1.83378,0.39559 0.0907,0.23648 -0.60433,1.46703 -1.7281,3.05939 -1.03394,1.46508 -1.87842,2.86464 -1.87662,3.11013 0.002,0.24549 0.42745,0.72119 0.94589,1.0571 1.47765,0.95743 1.9493,2.31263 1.95139,5.60695 0.001,1.52797 -0.0966,2.93313 -0.21672,3.12257 -0.15172,0.2392 -0.73662,0.32005 -1.91418,0.26459 l -1.6957,-0.0799 -0.13229,-2.9704 c -0.16766,-3.76438 -0.42286,-4.11274 -3.10748,-4.24184 -0.98302,-0.0473 -1.96591,0.0334 -2.18419,0.17929 -0.30553,0.20419 -0.42733,1.04412 -0.52917,3.6491 l -0.13229,3.38385 -1.59836,0.0773 c -0.87909,0.0425 -1.68277,-0.007 -1.78594,-0.11024 z"
       id="path3804"
       inkscape:connector-curvature="0" />
    <text
       xml:space="preserve"
       style="font-style:normal;font-variant:normal;font-weight:bold;font-stretch:normal;font-size:11.28888893px;line-height:125%;font-family:sans-serif;-inkscape-font-specification:'sans-serif Bold';letter-spacing:0px;word-spacing:0px;fill:#ffffff;fill-opacity:1;stroke:none;stroke-width:1px;stroke-linecap:butt;stroke-linejoin:miter;stroke-opacity:1"
       x="173.28445"
       y="217.1311"
       id="text3399"
       sodipodi:linespacing="125%"><tspan
         sodipodi:role="line"
         id="tspan3401"
         x="173.28445"
         y="217.1311"
         style="font-style:normal;font-variant:normal;font-weight:bold;font-stretch:normal;font-size:22.57777786px;font-family:sans-serif;-inkscape-font-specification:'sans-serif Bold';fill:#ffffff">O</tspan></text>
  </g>
</svg>
